<svg xmlns="http://www.w3.org/2000/svg" viewBox="0 0 446 545"><defs><style>.cls-1{fill:#fff;}</style></defs><title>Asset 6</title><g id="Layer_2" data-name="Layer 2"><g id="Layer_1-2" data-name="Layer 1"><circle class="cls-1" cx="223" cy="334" r="104"/><path class="cls-1" d="M446,545H0V0H446ZM223,159A175,175,0,1,0,398,334,175,175,0,0,0,223,159ZM363,54V48a12,12,0,0,0-12-12H96A12,12,0,0,0,84,48v6A12,12,0,0,0,96,66H351A12,12,0,0,0,363,54ZM211,97.5h0A11.53,11.53,0,0,0,199.5,86H60.5A11.53,11.53,0,0,0,49,97.5h0A11.53,11.53,0,0,0,60.5,109h139A11.53,11.53,0,0,0,211,97.5Zm185,0h0A11.53,11.53,0,0,0,384.5,86h-139A11.53,11.53,0,0,0,234,97.5h0A11.53,11.53,0,0,0,245.5,109h139A11.53,11.53,0,0,0,396,97.5Z"/></g></g></svg>