<svg xmlns="http://www.w3.org/2000/svg" viewBox="0 0 622 187"><defs><style>.cls-1{fill:#fff;}</style></defs><title>Asset 3</title><g id="Layer_2" data-name="Layer 2"><g id="Layer_1-2" data-name="Layer 1"><path class="cls-1" d="M622,187H0V0H622ZM113,35a60,60,0,1,0,60,60A60,60,0,0,0,113,35ZM587,72.5h0A23.56,23.56,0,0,0,563.5,49h-281A23.56,23.56,0,0,0,259,72.5h0A23.56,23.56,0,0,0,282.5,96h281A23.56,23.56,0,0,0,587,72.5ZM566,128v-1a12,12,0,0,0-12-12H293a12,12,0,0,0-12,12v1a12,12,0,0,0,12,12H554A12,12,0,0,0,566,128Z"/></g></g></svg>