<svg xmlns="http://www.w3.org/2000/svg" viewBox="0 0 622 172"><defs><style>.cls-1{fill:#fff;}</style></defs><title>Asset 4</title><g id="Layer_2" data-name="Layer 2"><g id="Layer_1-2" data-name="Layer 1"><path class="cls-1" d="M622,172H0V0H622ZM128,34a52,52,0,1,0,52,52A52,52,0,0,0,128,34ZM582,62.5h0A16.54,16.54,0,0,0,565.5,46h-253A16.54,16.54,0,0,0,296,62.5h0A16.54,16.54,0,0,0,312.5,79h253A16.54,16.54,0,0,0,582,62.5Zm-34.2,52h0a12,12,0,0,0-12-12H343.2a12,12,0,0,0-12,12h0a12,12,0,0,0,12,12H535.8A12,12,0,0,0,547.8,114.5Z"/></g></g></svg>