<svg xmlns="http://www.w3.org/2000/svg" xmlns:xlink="http://www.w3.org/1999/xlink" viewBox="0 0 586.72 501.18"><defs><style>.cls-1{isolation:isolate;}.cls-2,.cls-3{opacity:0.37;mix-blend-mode:darken;}.cls-2{fill:url(#Degradado_sin_nombre_59);}.cls-3{fill:url(#Degradado_sin_nombre_59-2);}.cls-4{fill:url(#Degradado_sin_nombre_10);}.cls-5{fill:url(#Degradado_sin_nombre_59-3);}.cls-6{fill:url(#Degradado_sin_nombre_10-2);}.cls-7{fill:url(#Degradado_sin_nombre_59-4);}.cls-8{fill:url(#Degradado_sin_nombre_10-3);}.cls-9{fill:url(#Degradado_sin_nombre_59-5);}.cls-10{fill:#111023;}.cls-11{fill:url(#Degradado_sin_nombre_59-6);}.cls-12{fill:url(#Degradado_sin_nombre_88);}.cls-13{fill:url(#Degradado_sin_nombre_25);}.cls-14{fill:url(#Degradado_sin_nombre_59-7);}.cls-15{fill:url(#Degradado_sin_nombre_25-2);}.cls-16{fill:url(#Degradado_sin_nombre_59-8);}.cls-17{fill:url(#Degradado_sin_nombre_86);}.cls-18{fill:#5b2b89;}.cls-19{fill:url(#Degradado_sin_nombre_12);}.cls-20{fill:url(#Degradado_sin_nombre_12-2);}.cls-21{fill:url(#Degradado_sin_nombre_12-3);}.cls-22{fill:url(#Degradado_sin_nombre_12-4);}.cls-23{fill:url(#Degradado_sin_nombre_86-2);}.cls-24{opacity:0.38;mix-blend-mode:overlay;fill:url(#Degradado_sin_nombre_87);}.cls-25{fill:url(#Degradado_sin_nombre_86-3);}.cls-26{fill:#f79244;}.cls-27{fill:#fff;}.cls-28{opacity:0.5;mix-blend-mode:multiply;fill:url(#Degradado_sin_nombre_25-3);}.cls-29{fill:url(#Degradado_sin_nombre_25-4);}.cls-30{fill:url(#Degradado_sin_nombre_25-5);}.cls-31{fill:#e9fdff;}.cls-32{fill:url(#Degradado_sin_nombre_59-9);}.cls-33{fill:url(#Degradado_sin_nombre_10-4);}.cls-34{fill:#2a2a2a;}.cls-35{fill:url(#Degradado_sin_nombre_12-5);}.cls-36{font-size:53.84px;fill:#6772e5;font-family:CocomatProTrial-ExtraBold, Cocomat Pro Trial;font-weight:800;}.cls-37{letter-spacing:-0.01em;}.cls-38{letter-spacing:0em;}.cls-39{letter-spacing:0em;}.cls-40{letter-spacing:-0.03em;}.cls-41{letter-spacing:-0.12em;}.cls-42{letter-spacing:-0.03em;}.cls-43{letter-spacing:0em;}</style><linearGradient id="Degradado_sin_nombre_59" x1="290.16" y1="344.61" x2="306.33" y2="100.29" gradientUnits="userSpaceOnUse"><stop offset="0" stop-color="#31d1d6"/><stop offset="0.37" stop-color="#32ced8"/><stop offset="0.62" stop-color="#36c6df"/><stop offset="0.82" stop-color="#3cb7eb"/><stop offset="1" stop-color="#45a3fa"/></linearGradient><linearGradient id="Degradado_sin_nombre_59-2" x1="303.31" y1="344.61" x2="319.49" y2="100.29" xlink:href="#Degradado_sin_nombre_59"/><linearGradient id="Degradado_sin_nombre_10" x1="347.18" y1="144.95" x2="347.18" y2="102.35" gradientUnits="userSpaceOnUse"><stop offset="0" stop-color="#f9e6d9"/><stop offset="0.12" stop-color="#fcf1ea"/><stop offset="0.27" stop-color="#fef9f6"/><stop offset="0.48" stop-color="#fffefd"/><stop offset="1" stop-color="#fff"/></linearGradient><linearGradient id="Degradado_sin_nombre_59-3" x1="120.5" y1="257.66" x2="233.63" y2="257.66" xlink:href="#Degradado_sin_nombre_59"/><linearGradient id="Degradado_sin_nombre_10-2" x1="167.47" y1="340.2" x2="166.39" y2="285.18" xlink:href="#Degradado_sin_nombre_10"/><linearGradient id="Degradado_sin_nombre_59-4" x1="369.97" y1="268.79" x2="483.11" y2="268.79" gradientTransform="matrix(0.98, -0.19, 0.19, 0.98, -46.65, 85.52)" xlink:href="#Degradado_sin_nombre_59"/><linearGradient id="Degradado_sin_nombre_10-3" x1="419.47" y1="335.25" x2="418.39" y2="280.24" xlink:href="#Degradado_sin_nombre_10"/><linearGradient id="Degradado_sin_nombre_59-5" x1="192.49" y1="188.19" x2="224.49" y2="179.92" xlink:href="#Degradado_sin_nombre_59"/><linearGradient id="Degradado_sin_nombre_59-6" x1="128.98" y1="157.8" x2="200.22" y2="157.8" xlink:href="#Degradado_sin_nombre_59"/><linearGradient id="Degradado_sin_nombre_88" x1="79.38" y1="16.12" x2="131.75" y2="16.12" gradientUnits="userSpaceOnUse"><stop offset="0" stop-color="#51adc6"/><stop offset="0.01" stop-color="#55afc4"/><stop offset="0.07" stop-color="#74bfb5"/><stop offset="0.13" stop-color="#8fcda7"/><stop offset="0.21" stop-color="#a5d89d"/><stop offset="0.3" stop-color="#b6e194"/><stop offset="0.41" stop-color="#c1e78e"/><stop offset="0.57" stop-color="#c8ea8b"/><stop offset="1" stop-color="#caeb8a"/></linearGradient><linearGradient id="Degradado_sin_nombre_25" x1="82.29" y1="10.06" x2="73.81" y2="10.06" gradientUnits="userSpaceOnUse"><stop offset="0" stop-color="#8aebd6"/><stop offset="0.46" stop-color="#89e9d7"/><stop offset="0.63" stop-color="#84e2da"/><stop offset="0.75" stop-color="#7dd7de"/><stop offset="0.84" stop-color="#72c6e5"/><stop offset="0.92" stop-color="#64b0ee"/><stop offset="0.99" stop-color="#5395f9"/><stop offset="1" stop-color="#5193fa"/></linearGradient><linearGradient id="Degradado_sin_nombre_59-7" x1="83.84" y1="15.14" x2="73.77" y2="15.14" xlink:href="#Degradado_sin_nombre_59"/><linearGradient id="Degradado_sin_nombre_25-2" x1="83.86" y1="20.98" x2="74.6" y2="20.98" xlink:href="#Degradado_sin_nombre_25"/><linearGradient id="Degradado_sin_nombre_59-8" x1="131.75" y1="15.61" x2="162.55" y2="15.61" xlink:href="#Degradado_sin_nombre_59"/><linearGradient id="Degradado_sin_nombre_86" x1="118.28" y1="25.24" x2="132.97" y2="25.24" gradientUnits="userSpaceOnUse"><stop offset="0" stop-color="#f7be86"/><stop offset="0.33" stop-color="#f7bc83"/><stop offset="0.54" stop-color="#f7b67b"/><stop offset="0.73" stop-color="#f7ac6c"/><stop offset="0.89" stop-color="#f79e57"/><stop offset="1" stop-color="#f79244"/></linearGradient><linearGradient id="Degradado_sin_nombre_12" x1="205.04" y1="36.47" x2="204.55" y2="54.14" gradientUnits="userSpaceOnUse"><stop offset="0" stop-color="#7b6ed6"/><stop offset="0.48" stop-color="#796dd5"/><stop offset="0.65" stop-color="#7268d0"/><stop offset="0.78" stop-color="#6760c9"/><stop offset="0.88" stop-color="#5655be"/><stop offset="0.96" stop-color="#4047b0"/><stop offset="1" stop-color="#333ea8"/></linearGradient><linearGradient id="Degradado_sin_nombre_12-2" x1="216.94" y1="36.7" x2="215.65" y2="77.71" xlink:href="#Degradado_sin_nombre_12"/><linearGradient id="Degradado_sin_nombre_12-3" x1="227.76" y1="37.1" x2="227.27" y2="54.76" xlink:href="#Degradado_sin_nombre_12"/><linearGradient id="Degradado_sin_nombre_12-4" x1="123.24" y1="74.34" x2="241.25" y2="74.34" xlink:href="#Degradado_sin_nombre_12"/><linearGradient id="Degradado_sin_nombre_86-2" x1="174.33" y1="24.52" x2="195.69" y2="24.52" xlink:href="#Degradado_sin_nombre_86"/><linearGradient id="Degradado_sin_nombre_87" x1="185.73" y1="65.95" x2="241.25" y2="65.95" gradientUnits="userSpaceOnUse"><stop offset="0" stop-color="#3c0887"/><stop offset="0.32" stop-color="#3f0987"/><stop offset="0.53" stop-color="#470e87"/><stop offset="0.71" stop-color="#561588"/><stop offset="0.87" stop-color="#6b1f89"/><stop offset="1" stop-color="#822a8a"/></linearGradient><linearGradient id="Degradado_sin_nombre_86-3" x1="198.88" y1="29.08" x2="226.94" y2="29.08" xlink:href="#Degradado_sin_nombre_86"/><linearGradient id="Degradado_sin_nombre_25-3" x1="308.74" y1="409.03" x2="309.82" y2="334.61" xlink:href="#Degradado_sin_nombre_25"/><linearGradient id="Degradado_sin_nombre_25-4" x1="483.65" y1="404.26" x2="483.65" y2="338.73" xlink:href="#Degradado_sin_nombre_25"/><linearGradient id="Degradado_sin_nombre_25-5" x1="160.64" y1="404.26" x2="160.64" y2="338.73" xlink:href="#Degradado_sin_nombre_25"/><linearGradient id="Degradado_sin_nombre_59-9" x1="257.04" y1="283.12" x2="362.39" y2="283.12" gradientTransform="translate(59.4 -55.87) rotate(11.55)" xlink:href="#Degradado_sin_nombre_59"/><linearGradient id="Degradado_sin_nombre_10-4" x1="293.01" y1="337.73" x2="291.93" y2="282.72" xlink:href="#Degradado_sin_nombre_10"/><linearGradient id="Degradado_sin_nombre_12-5" x1="344.05" y1="202.43" x2="386.75" y2="202.43" xlink:href="#Degradado_sin_nombre_12"/></defs><title>404</title><g class="cls-1"><g id="Layer_2" data-name="Layer 2"><g id="OBJECTS"><path class="cls-2" d="M106.4,330.6H54.92c-13.78-14.31-17.47-37.12-9.24-55.2,7.85-17.23,24.69-28.62,34.89-44.57,21.78-34,11.25-84.75,40.85-112.27,14.79-13.76,36.06-17.74,56.2-19.35s40.94-1.56,59.56-9.39c23-9.65,40.28-30.38,63.93-38.19,26.56-8.77,58.33,2.18,73.85,25.44,9.71,14.56,13.37,32.85,24.86,46.06,18.57,21.35,51.29,23,74.45,39.27a69.27,69.27,0,0,1,28.66,48.67c2.47,23.31-6.38,49.78,7.6,68.59,6.81,9.18,17.86,14.35,25.2,23.11s9.38,16.67,7.07,27.83Z"/><path class="cls-3" d="M119.56,330.6H68.07c-13.77-14.31-17.46-37.12-9.23-55.2,7.84-17.23,24.69-28.62,34.89-44.57,21.78-34,11.25-84.75,40.84-112.27,14.8-13.76,36.07-17.74,56.2-19.35s40.95-1.56,59.57-9.39c23-9.65,40.27-30.38,63.93-38.19,26.55-8.77,58.33,2.18,73.85,25.44,9.71,14.56,13.37,32.85,24.86,46.06,18.57,21.35,51.29,23,74.45,39.27a69.23,69.23,0,0,1,28.65,48.67c2.48,23.31-6.37,49.78,7.6,68.59,6.82,9.18,17.86,14.35,25.21,23.11s9.37,16.67,7.07,27.83Z"/><path class="cls-4" d="M444.32,144.15l-2.12.07H250.74l-.46.06c-1.9-12.7,8-25.6,20.55-29,10.94-3,23.74-.33,32.9-7,8.21-6,10.25-17.19,15.62-25.82A36.56,36.56,0,0,1,333,69.58c7-3.75,15.69-5.06,22.85-1.67,12.68,6,15.11,22.82,23.59,34,1.89,2.5,4.27,4.83,7.3,5.66,2.79.77,5.75.17,8.61-.34,9.37-1.65,20.61-1.5,26.44,6,2.74,3.54,3.72,8.08,5.24,12.28s4,8.53,8.22,10c2,.71,4.31.73,6.09,1.92C443.5,138.93,444.19,141.48,444.32,144.15Z"/><path class="cls-5" d="M233.63,302.36H217.57v28.23H178.66V302.36H120.5V273.42l60.65-88.69h36.42v88.19h16.06Zm-55-29.44V256q0-4.78.35-12.92a80.34,80.34,0,0,1,.55-8.53h-1.1a104.29,104.29,0,0,1-7.68,14.37l-16.16,24Z"/><path class="cls-6" d="M223,302.36H206.94V330.6H168V302.36H109.87V273.43l60.66-88.69h36.41v88.19H223Zm-55-29.43V256q0-4.78.35-12.92t.55-8.53h-1.09a106,106,0,0,1-7.69,14.37l-16.16,24Z"/><path class="cls-7" d="M487.53,303.33l-5.59-28.9-10.43,2-5.34,1-16.74-86.59-35.76,6.92L371,296.4l5.49,28.41,57.11-11.05,3.25,16.83h39.63l-4.68-24.21,5.34-1Zm-70-16.44-13.17,2.54,9.4-22.18,1.9-4.49a105.8,105.8,0,0,0,4.81-15.57l1.08-.2a84.31,84.31,0,0,0,1.08,8.48q1.2,8,2.11,12.75L428,284.87Z"/><path class="cls-8" d="M477.1,305.35l-5.59-28.89-15.77,3.05L439,192.92l-25.32,4.89-10.43,2-42.71,98.6,5.49,28.4,10.43-2,46.68-9,2.86,14.8h39.63l-4.29-22.19,10.43-2Zm-63.33-38.1c.19,1.09.38,2.08.55,3l3.22,16.65-23.61,4.57,11.31-26.68a105.3,105.3,0,0,0,4.81-15.56l1.08-.21a83.56,83.56,0,0,0,1.08,8.48C412.78,261.31,413.3,264.57,413.77,267.25Z"/><path class="cls-9" d="M239.06,256.61H215.31L200.22,146.12s-21.81-23.82-46.84-28.28l23.84-2.57L231,116.73Z"/><path class="cls-10" d="M145.31,195.87s-13.5,19.76-7.51,36.72l25.12-36.72-3.27-4.38Z"/><path class="cls-10" d="M215.31,256.61l-.81,5.1s-7.16,1-7.56,11.22h18.62l10.11-9.87.94-6.45Z"/><path class="cls-11" d="M186.57,146l-29.77-1.11,4.84,45.59-20.18,7.23-11.63-56.3A17.4,17.4,0,0,1,144.5,118.8l8.87-1h0c25,4.46,46.84,28.28,46.84,28.28Z"/><path class="cls-12" d="M131.75,18.8v1.32l-1.61.21a6.32,6.32,0,0,0-1.3-2c-2.15-1.86-3.65-3.32-5.19-2.43-1.17.68-1.08,3.86-1,5.37l-4.39.56L79.4,26.77l0-.07c2.52-.6,4.48-5.13,4.48-10.63S82,6.17,79.49,5.47l52.26,5.9V18.8Z"/><path class="cls-13" d="M82.29,8.32a4.14,4.14,0,0,0-.3.5,29.15,29.15,0,0,1-1.51,3.31,4.61,4.61,0,0,1-2.07,1.63,12.11,12.11,0,0,1-2.77.52,6.41,6.41,0,0,0-1.83.47c.3-5.19,2.35-9.23,4.86-9.37l.82.09A5.08,5.08,0,0,1,82.29,8.32Z"/><path class="cls-14" d="M83.84,15.2l0,.05c-.64.86-1,1.93-1.55,2.82a5,5,0,0,1-3,2.07c-1.12.25-2.34.12-3.37.63A3.32,3.32,0,0,0,74.6,22a20.15,20.15,0,0,1-.83-5.88c0-.45,0-.89,0-1.32a6.41,6.41,0,0,1,1.83-.47,12.11,12.11,0,0,0,2.77-.52,4.61,4.61,0,0,0,2.07-1.63A29.15,29.15,0,0,0,82,8.82a4.14,4.14,0,0,1,.3-.5A17.38,17.38,0,0,1,83.84,15.2Z"/><path class="cls-15" d="M83.86,16.07c0,5.5-2,10-4.48,10.63a2.69,2.69,0,0,1-.57.07c-1.76,0-3.31-1.91-4.21-4.82a3.32,3.32,0,0,1,1.26-1.18c1-.51,2.25-.38,3.37-.63a5,5,0,0,0,3-2.07c.6-.89.91-2,1.55-2.82l0-.05C83.85,15.49,83.86,15.78,83.86,16.07Z"/><path class="cls-10" d="M162.55,13.46h15.73a13.51,13.51,0,0,0-3.67,2c-.5.46-.28,1.3.33,2.37H162.55Z"/><path class="cls-10" d="M197.4,16.09v1.74h-8.52a32.46,32.46,0,0,1-1.64-4.37H197.4Z"/><polygon class="cls-16" points="162.55 17.83 162.55 18.8 131.75 18.8 131.75 12.42 162.55 12.42 162.55 13.46 162.55 17.83"/><path class="cls-17" d="M133,29.69l-6.78,5.16s-8.23-8.63-7.9-13l4.39-.56c-.11-1.51-.2-4.69,1-5.37,1.54-.89,3,.57,5.19,2.43a6.32,6.32,0,0,1,1.3,2A54.56,54.56,0,0,1,133,29.69Z"/><path class="cls-18" d="M87.35,5.51c-.46-1-1.92-.14-1.47.84A20.06,20.06,0,0,1,85,25a.84.84,0,0,0,1.46.84A21.84,21.84,0,0,0,87.35,5.51Z"/><polygon class="cls-19" points="208.1 36.5 208.1 41.73 201.84 35.81 208.1 36.5"/><path class="cls-20" d="M208.1,41.73l6.3,6,6,5.68s13.78-9.65,19.12-9.73a6.44,6.44,0,0,1,1.09.07c4.72.67,7.6,6.12,6.77,11.35-.89,5.64-.73,11.88-6.15,12.89s-29.34,6.81-29.34,6.81l-26.18-35.5,3.09-2.16,6.87-4.8,1.39-1,3,2.85,1.74,1.65Z"/><path class="cls-21" d="M225,37.59l15.63,6.11a6.44,6.44,0,0,0-1.09-.07c-5.34.08-19.12,9.73-19.12,9.73l-6-5.68Z"/><path class="cls-22" d="M241.25,67.94l-9.08,24.72L231,116.73s-1.06.19-2.91.45c-8.66,1.24-34.6,4.19-50.82-1.91l6.32-29.91-2.92-23.58-35.25,3.89L123.24,37.09l3-2.24L133,29.69l20.91,20.42,32.72-14.3a11.92,11.92,0,0,0,2.22,1.28l-3.09,2.16,26.18,35.5S235.82,69,241.25,67.94Z"/><path class="cls-23" d="M195.69,32.29l-6.87,4.8a11.92,11.92,0,0,1-2.22-1.28A7.93,7.93,0,0,1,183,30.29c-.3-3.46-6.14-9.09-8.05-12.46-.61-1.07-.83-1.91-.33-2.37a13.51,13.51,0,0,1,3.67-2c3.63-1.44,8.47-2.43,8.91-.18a1.67,1.67,0,0,0,.05.18,32.46,32.46,0,0,0,1.64,4.37C191.37,23.64,195.69,32.29,195.69,32.29Z"/><path class="cls-24" d="M232.17,92.66c-40-8.5-46.44-53.41-46.44-53.41l26.18,35.53,29.34-6.84Z"/><path class="cls-25" d="M224.77,15.76c.85-.24,1.71-.06,2,1.29.79,3.09-2.68,6.81-2.68,6.81L225,37.59,214.4,47.68l4.15-11.87-10.45.69-6.26-.69-1.74-1.65s-1.22-11.39-1.22-18.07a22,22,0,0,1,.22-3.67l.06-.32c7.32,1.23,17.48-1.62,17.48-1.62s1.43,13.86,3.37,14.11,2.55-7.54,2.55-7.54A6.69,6.69,0,0,1,224.77,15.76Z"/><path class="cls-10" d="M224.85,5.68l-.08,10.08a6.69,6.69,0,0,0-2.21,1.29s-.6,7.77-2.55,7.54-3.37-14.11-3.37-14.11-10.16,2.85-17.48,1.62h0a9.85,9.85,0,0,1-5.65-2.58c-5.6-5.9-3.65-9.24,4.38-7.42S222.55-5.75,224.85,5.68Z"/><polygon class="cls-26" points="218.55 35.81 214.41 47.68 208.1 41.73 208.1 36.5 218.55 35.81"/><path class="cls-10" d="M198.46,13.93a6.1,6.1,0,0,1,5-.3c1,.38.26,1.9-.77,1.53a4.21,4.21,0,0,0-3.28.2C198.42,15.85,197.48,14.42,198.46,13.93Z"/><ellipse class="cls-10" cx="214.01" cy="17.98" rx="1.23" ry="1.82" transform="translate(-0.65 11.2) rotate(-2.99)"/><path class="cls-10" d="M216.16,13.52a6.12,6.12,0,0,0-5,.22c-1,.48,0,1.92.92,1.44a4.23,4.23,0,0,1,3.29-.14C216.4,15.43,217.19,13.91,216.16,13.52Z"/><path class="cls-26" d="M204.29,23.62c.55-2.58,1.88-5.21,2.79-7.69.18-.52.95-.13.76.38L206.13,21a11.53,11.53,0,0,0-.73,2c-.19,1.95.71,1.8,1.72,2.27.5.23.11,1-.39.76C205.49,25.47,203.92,25.4,204.29,23.62Z"/><path class="cls-10" d="M203.35,18.2a5.36,5.36,0,0,0-2.73-1.2c-.63-.08-.89.88-.25,1a4.64,4.64,0,0,1,1.46.43l-1.6.52c-.61.2-.36,1.17.26,1l2.63-.86C203.44,18.93,203.66,18.45,203.35,18.2Z"/><ellipse class="cls-27" cx="207.48" cy="31.25" rx="2.22" ry="3.21"/><path class="cls-28" d="M514,330.6H112.73s-21.59,14.33,10.51,16.76,82.17,4.72,80.93,15.64S174,371.76,174,391s133.7,14.83,133.7,14.83,75.53,1,86.28-11.77-30.45-24.45-23-29.48,61.77,10.06,69.86-2.16-1.61-20,13.31-21.57S511.47,345.12,514,330.6Z"/><ellipse class="cls-29" cx="483.65" cy="355.99" rx="30.34" ry="8.63"/><ellipse class="cls-30" cx="160.64" cy="363.45" rx="26.52" ry="6.56"/><ellipse class="cls-31" cx="312.64" cy="389.02" rx="30.12" ry="5.8"/><path class="cls-32" d="M352.47,253.43Q343.2,232.24,317.7,227q-2.77-.57-5.43-.9-22.5-2.85-37.11,10.74Q258.81,252.05,251,290.18q-4.77,23.35-2.66,40.41h37.16q-.7-10,3.92-32.56,5-24.43,9.9-33,2.85-5,6.45-6.57a9,9,0,0,1,5.59-.54q7.14,1.47,8.22,11.61t-3.77,33.9q-3.65,17.81-7.31,27.17h40.74a179.19,179.19,0,0,0,5-19.32q1.42-7,2.24-13.38Q360,270.59,352.47,253.43Z"/><path class="cls-33" d="M342.06,251.31q-8.32-19-29.79-25.18-2.41-.69-5-1.22-26.19-5.35-42.54,9.84t-24.13,53.31q-1.59,7.76-2.41,14.83a104.34,104.34,0,0,0,0,27.7h37.11c-.05-.24-.08-.48-.11-.73q-1.17-9.71,3.78-33.95,5-24.43,9.91-33t12-7.11a8.75,8.75,0,0,1,4.82,2.65c1.85,2,3,5,3.4,8.95q1.08,10.16-3.77,33.9-4.08,19.92-8.19,29.29h40.93a181.18,181.18,0,0,0,5.67-21.43Q351.32,272.5,342.06,251.31Z"/><polygon class="cls-34" points="370.43 156.01 370.18 156.21 344.05 176.54 327.74 189.24 314.16 226.81 310.39 225.46 324.38 186.78 367.98 152.85 370.43 156.01"/><path class="cls-35" d="M383,240.35c-3,3.53-7,6-11,8.3l-.27-.47c1.57-2,3.23-4.37,2.76-6.88a8.06,8.06,0,0,0-2.88-4.22c-2.19-1.93-4.63-3.56-6.72-5.59a12.94,12.94,0,0,1-4.2-7.47c-.44-3.8,1.61-7.39,2.41-11.13a7.53,7.53,0,0,0-.17-4.51c-1.34-3.18-5.39-3.91-8.6-5.19-2.87-1.16-5.57-3.31-6.37-6.3-1.16-4.34,1.93-8.78,1.51-13.25a8.81,8.81,0,0,0-5.38-7.1l26.13-20.34c4.43,3.84,8.25,8.93,8.3,14.74,0,3.68-1.47,7.18-2.53,10.7a9.55,9.55,0,0,0-.52,4.35c.41,2.22,2.18,3.9,3.81,5.47,3.37,3.23,6.76,7.16,6.7,11.83-.06,5.24-4.53,9.91-3.75,15.09.5,3.31,3.05,6,4.07,9.13C387.66,231.91,385.92,236.82,383,240.35Z"/></g><g id="Layer_4" data-name="Layer 4"><text class="cls-36" transform="translate(0 474.2)"><tspan class="cls-37">L</tspan><tspan class="cls-38" x="31.89" y="0">oo</tspan><tspan class="cls-39" x="95.87" y="0">k</tspan><tspan x="127.91" y="0">s Li</tspan><tspan class="cls-40" x="217.08" y="0">k</tspan><tspan x="247.86" y="0">e </tspan><tspan class="cls-41" x="296.23" y="0">Y</tspan><tspan x="325.85" y="0">ou’</tspan><tspan class="cls-42" x="404.84" y="0">r</tspan><tspan class="cls-43" x="429.18" y="0">e </tspan><tspan class="cls-37" x="477.55" y="0">L</tspan><tspan x="509.44" y="0">ost</tspan></text><text/></g></g></g></svg>