<svg xmlns="http://www.w3.org/2000/svg" viewBox="0 0 429.08 363.03"><defs><style>.cls-1{fill:#e0e7ff;}.cls-2{fill:#fbf2ea;}.cls-3{isolation:isolate;}.cls-4,.cls-5{fill:#6772e5;}.cls-10,.cls-11,.cls-12,.cls-13,.cls-15,.cls-16,.cls-5,.cls-6,.cls-7,.cls-8,.cls-9{fill-rule:evenodd;}.cls-19,.cls-6{fill:#fff;}.cls-7{fill:#e1b3bf;}.cls-8{fill:#d68096;}.cls-9{fill:#ca4c5a;}.cls-10{fill:#2e2450;}.cls-11{fill:#d78f74;}.cls-12,.cls-13{fill:#4772d1;}.cls-12{stroke:#4772d1;}.cls-12,.cls-14{stroke-linecap:round;stroke-linejoin:round;stroke-width:0.57px;}.cls-14{fill:none;stroke:#6e5c9f;}.cls-15{fill:#bb4f58;}.cls-16{fill:#f2dce2;}.cls-17{fill:#79d2f4;}.cls-18{fill:#1b165b;}.cls-20{fill:#fda734;}</style></defs><title>nothing-fix</title><g id="Layer_2" data-name="Layer 2"><g id="Layer_1-2" data-name="Layer 1"><g id="Layer_3" data-name="Layer 3"><polygon class="cls-1" points="2.26 12.87 0 60.26 417.59 46.84 413.46 0 2.26 12.87"/><polygon class="cls-2" points="16.45 304.87 11.42 352.05 429.08 363.03 427.7 316.03 16.45 304.87"/><g class="cls-3"><g class="cls-3"><path class="cls-4" d="M84.23,19.86a.54.54,0,0,1,.18.44l.94,24.33a1,1,0,0,1-.18.67.69.69,0,0,1-.52.27h0a.87.87,0,0,1-.48-.11,2.73,2.73,0,0,1-.42-.3l-.31-.27-16-13L68,45.19a.56.56,0,0,1-.15.45.58.58,0,0,1-.44.19L62.91,46a.6.6,0,0,1-.66-.6L61.32,21a.91.91,0,0,1,.18-.62.65.65,0,0,1,.49-.26h.06a.62.62,0,0,1,.4.1,2.16,2.16,0,0,1,.38.28l.32.26,16.1,13.05-.51-13.33a.57.57,0,0,1,.59-.64l4.44-.17A.6.6,0,0,1,84.23,19.86Z"/><path class="cls-4" d="M89.92,31.91a8.79,8.79,0,0,1,3.18-3.37,9.5,9.5,0,0,1,9.22-.35,9,9,0,0,1,3.76,12.13,8.77,8.77,0,0,1-3.17,3.37,9.13,9.13,0,0,1-4.55,1.37,9.38,9.38,0,0,1-4.67-1,9,9,0,0,1-3.43-3.12,9,9,0,0,1-.34-9Zm4.71,6.42a3.85,3.85,0,0,0,3.51,1.87,4,4,0,0,0,2-.6,3.77,3.77,0,0,0,1.36-1.52,4.41,4.41,0,0,0,.43-2.12,4.34,4.34,0,0,0-.59-2.07,3.78,3.78,0,0,0-1.48-1.41,3.94,3.94,0,0,0-5.4,1.68A4.26,4.26,0,0,0,94,36.27,4.17,4.17,0,0,0,94.63,38.33Z"/><path class="cls-4" d="M119.67,39.63a.64.64,0,0,1,.27.52l.13,3.3a.67.67,0,0,1-.25.56,1,1,0,0,1-.68.25,8.1,8.1,0,0,1-5.73-1.62,7.09,7.09,0,0,1-2.2-5.4L111,31.31l-1.76.06a.53.53,0,0,1-.41-.12.57.57,0,0,1-.16-.41l-.12-3.09a.6.6,0,0,1,.13-.43.55.55,0,0,1,.4-.17l1.76-.06-.17-4.46a.69.69,0,0,1,.11-.43.68.68,0,0,1,.35-.26l3.9-1,.24-.05c.28,0,.44.16.45.51l.21,5.47,2.93-.11a.56.56,0,0,1,.42.13.62.62,0,0,1,.16.42l.11,3.1A.49.49,0,0,1,119,31l-2.91.11.23,6A2.37,2.37,0,0,0,117,39a2.93,2.93,0,0,0,2,.49A1,1,0,0,1,119.67,39.63Z"/><path class="cls-4" d="M136.24,26.6a5.66,5.66,0,0,1,2.29,2.51,9.72,9.72,0,0,1,.91,4l.36,9.4a.56.56,0,0,1-.13.43.55.55,0,0,1-.43.17l-3.94.16a.61.61,0,0,1-.44-.14.57.57,0,0,1-.16-.43l-.35-9.09a3.52,3.52,0,0,0-.79-2.29,2.63,2.63,0,0,0-2.18-.77,3,3,0,0,0-1.61.5,2.9,2.9,0,0,0-1,1.21,3.6,3.6,0,0,0-.31,1.63l.35,9.06a.5.5,0,0,1-.55.59l-4,.15a.56.56,0,0,1-.42-.13.62.62,0,0,1-.16-.42l-.93-24.35a.48.48,0,0,1,.53-.57l4-.15a.49.49,0,0,1,.59.53l.37,9.64a6,6,0,0,1,2-1.69,5.83,5.83,0,0,1,2.56-.7A6.25,6.25,0,0,1,136.24,26.6Z"/><path class="cls-4" d="M144.08,23.39a2.84,2.84,0,0,1-1.09-1,2.77,2.77,0,0,1-.44-1.43,2.84,2.84,0,0,1,.33-1.47,2.94,2.94,0,0,1,1-1.09,2.84,2.84,0,0,1,1.44-.45,2.75,2.75,0,0,1,1.47.34,3,3,0,0,1,1.53,2.44A2.84,2.84,0,0,1,147,23.28a2.77,2.77,0,0,1-1.43.44A2.9,2.9,0,0,1,144.08,23.39Zm4,2.42a.6.6,0,0,1,.17.41l.61,15.93a.53.53,0,0,1-.14.42.58.58,0,0,1-.41.17l-4,.15a.56.56,0,0,1-.42-.13.62.62,0,0,1-.16-.42l-.61-15.92a.6.6,0,0,1,.13-.43.51.51,0,0,1,.4-.16l4-.16A.58.58,0,0,1,148.05,25.81Z"/><path class="cls-4" d="M166.05,25.44A6.17,6.17,0,0,1,168.54,28a8.78,8.78,0,0,1,1,4l.36,9.38a.51.51,0,0,1-.56.61l-3.94.15a.61.61,0,0,1-.44-.13.63.63,0,0,1-.17-.43l-.35-9.08a3.09,3.09,0,0,0-1-2.26,3.23,3.23,0,0,0-2.43-.79,3.42,3.42,0,0,0-1.72.51,3.32,3.32,0,0,0-1.23,1.24,2.89,2.89,0,0,0-.41,1.61l.35,9.05a.52.52,0,0,1-.58.6l-3.94.16a.54.54,0,0,1-.61-.57L152.3,26.1a.58.58,0,0,1,.58-.63l2.3-.09a.78.78,0,0,1,.37.09.72.72,0,0,1,.28.27l1,2.41a6.33,6.33,0,0,1,2.31-2.44,6.47,6.47,0,0,1,3.27-1A7,7,0,0,1,166.05,25.44Z"/><path class="cls-4" d="M189.87,24.21a.62.62,0,0,1,.18.44l.59,15.47a8.11,8.11,0,0,1-.92,4.26,7.5,7.5,0,0,1-2.93,3,9.46,9.46,0,0,1-4.41,1.19,15.13,15.13,0,0,1-3.35-.24,10.87,10.87,0,0,1-2.95-1,.5.5,0,0,1-.25-.44,1.13,1.13,0,0,1,.08-.45L177,43.75a.53.53,0,0,1,.5-.31,1.34,1.34,0,0,1,.35,0,17.26,17.26,0,0,0,2.1.49,11,11,0,0,0,2.25.17,3.56,3.56,0,0,0,2.6-1.13,3.87,3.87,0,0,0,.94-2.75v-1a6.64,6.64,0,0,1-2.12,1.5,6.9,6.9,0,0,1-2.63.61,7.66,7.66,0,0,1-4.15-1,8,8,0,0,1-3-2.94,8.7,8.7,0,0,1-1.22-4.18,10,10,0,0,1,.87-4.67,8,8,0,0,1,2.77-3.32,7.47,7.47,0,0,1,4-1.33,6.82,6.82,0,0,1,3.13.6,6.64,6.64,0,0,1,2.45,1.94l.68-1.95a.68.68,0,0,1,.61-.41l2.29-.09A.6.6,0,0,1,189.87,24.21Zm-6.14,11.64a3.58,3.58,0,0,0,1.35-1.38,3.7,3.7,0,0,0,.43-1.9,3.78,3.78,0,0,0-.58-1.93,3.57,3.57,0,0,0-1.45-1.3,4.37,4.37,0,0,0-4,.15,3.49,3.49,0,0,0-1.31,1.41,3.9,3.9,0,0,0-.41,2,3.7,3.7,0,0,0,.57,1.86A3.36,3.36,0,0,0,179.71,36a4,4,0,0,0,2,.4A4.2,4.2,0,0,0,183.73,35.85Z"/><path class="cls-4" d="M228.12,14.32a.61.61,0,0,1,.19.46L229.24,39a.63.63,0,0,1-.15.48.67.67,0,0,1-.46.18l-4.44.17a.57.57,0,0,1-.46-.16.62.62,0,0,1-.19-.45l-.27-7.1-11.18.43.27,7.1a.64.64,0,0,1-.16.47.62.62,0,0,1-.45.19l-4.44.17a.62.62,0,0,1-.47-.15.63.63,0,0,1-.19-.46l-.93-24.22a.57.57,0,0,1,.15-.46.67.67,0,0,1,.46-.18l4.44-.17a.64.64,0,0,1,.47.15.6.6,0,0,1,.19.44l.46,12.13,11.19-.43L222.61,15a.65.65,0,0,1,.15-.46.62.62,0,0,1,.45-.19l4.44-.17A.63.63,0,0,1,228.12,14.32Z"/><path class="cls-4" d="M250,30.91a2.69,2.69,0,0,1-.81,1.06,2,2,0,0,1-1.16.43l-9.76.37a3.57,3.57,0,0,0,1.55,1.6,4.53,4.53,0,0,0,2.41.53,4.76,4.76,0,0,0,1.57-.36,5.86,5.86,0,0,0,1.48-.83.73.73,0,0,1,.38-.15.66.66,0,0,1,.55.28l2,2.48a.9.9,0,0,1,.15.41.67.67,0,0,1-.22.51,9,9,0,0,1-2.72,1.6,9.8,9.8,0,0,1-3.16.71,9.3,9.3,0,0,1-4.65-1,8.82,8.82,0,0,1-3.43-3.12A8.59,8.59,0,0,1,232.77,31,8.95,8.95,0,0,1,236.9,23a8.9,8.9,0,0,1,4.48-1.37,8.78,8.78,0,0,1,4.37.92,8.11,8.11,0,0,1,3.19,2.84,7.92,7.92,0,0,1,1.28,4.14A3,3,0,0,1,250,30.91ZM239.3,27.09a3.62,3.62,0,0,0-1.24,1.85l7.07-.27a3.45,3.45,0,0,0-1.41-1.75,3.79,3.79,0,0,0-2.27-.61A3.58,3.58,0,0,0,239.3,27.09Z"/></g><g class="cls-3"><path class="cls-4" d="M267,22.77a.82.82,0,0,1-.13.45L265.23,26c-.15.25-.31.38-.49.39a.47.47,0,0,1-.34-.14,4.56,4.56,0,0,0-1.21-.72,2.66,2.66,0,0,0-1.17-.24,3.26,3.26,0,0,0-1.87.63,3.94,3.94,0,0,0-1.27,1.55,4.37,4.37,0,0,0-.41,2.06l.32,8.38c0,.39-.17.59-.58.6l-3.93.15a.56.56,0,0,1-.44-.13.57.57,0,0,1-.17-.43l-.61-15.87a.56.56,0,0,1,.15-.45.63.63,0,0,1,.43-.18l2.29-.09a.82.82,0,0,1,.38.09.7.7,0,0,1,.27.27l1,2.25a6.78,6.78,0,0,1,2.17-2.32,5.37,5.37,0,0,1,2.75-1,5.85,5.85,0,0,1,2.2.37,6.92,6.92,0,0,1,2.05,1.13A.54.54,0,0,1,267,22.77Z"/></g><g class="cls-3"><path class="cls-4" d="M285.09,29.56a2.62,2.62,0,0,1-.81,1.06,2,2,0,0,1-1.15.43l-9.77.37a3.49,3.49,0,0,0,1.56,1.6,4.64,4.64,0,0,0,4,.17,5.69,5.69,0,0,0,1.48-.83.73.73,0,0,1,.38-.15.63.63,0,0,1,.55.29l2,2.47a.9.9,0,0,1,.15.41.63.63,0,0,1-.22.51,9,9,0,0,1-2.72,1.6,9.74,9.74,0,0,1-3.16.71,9.32,9.32,0,0,1-4.65-1,8.89,8.89,0,0,1-3.43-3.12,8.75,8.75,0,0,1-1.39-4.45,9,9,0,0,1,13-8.4,8.06,8.06,0,0,1,4.47,7A3.2,3.2,0,0,1,285.09,29.56Zm-10.66-3.82a3.61,3.61,0,0,0-1.25,1.85l7.07-.27a3.48,3.48,0,0,0-1.4-1.75,3.8,3.8,0,0,0-2.28-.61A3.59,3.59,0,0,0,274.43,25.74Z"/></g><g class="cls-3"><path class="cls-4" d="M319.59,10.8a.5.5,0,0,1,.19.41,1.11,1.11,0,0,1-.08.44l-7.76,14.91.34,9a.87.87,0,0,1-.19.63.8.8,0,0,1-.59.26l-4,.15a.81.81,0,0,1-.9-.82l-.35-9-8.86-14.28a1,1,0,0,1-.12-.43.48.48,0,0,1,.17-.42.84.84,0,0,1,.51-.16l4.69-.18a.86.86,0,0,1,.58.19,1.63,1.63,0,0,1,.49.52l5.17,8.83,4.49-9.21a1.33,1.33,0,0,1,.44-.57,1.15,1.15,0,0,1,.6-.21l4.67-.18A.73.73,0,0,1,319.59,10.8Z"/></g><g class="cls-3"><path class="cls-4" d="M334.78,27.65a2.62,2.62,0,0,1-.81,1.06,2,2,0,0,1-1.15.43l-9.76.38a3.45,3.45,0,0,0,1.55,1.59,4.62,4.62,0,0,0,2.4.54,4.74,4.74,0,0,0,1.57-.37,5.93,5.93,0,0,0,1.49-.83.64.64,0,0,1,.93.14l2,2.47a.72.72,0,0,1,.15.41.63.63,0,0,1-.21.51,9.07,9.07,0,0,1-2.73,1.6,9.75,9.75,0,0,1-3.15.71,9.23,9.23,0,0,1-4.66-1A8.89,8.89,0,0,1,319,32.16a8.64,8.64,0,0,1-1.38-4.45,9,9,0,0,1,13-8.4,8,8,0,0,1,4.47,7A3.06,3.06,0,0,1,334.78,27.65Zm-10.66-3.82a3.67,3.67,0,0,0-1.25,1.85l7.07-.27a3.43,3.43,0,0,0-1.4-1.75,3.8,3.8,0,0,0-2.28-.61A3.61,3.61,0,0,0,324.12,23.83Z"/><path class="cls-4" d="M347.61,30.87a.66.66,0,0,1,.27.53l.13,3.3a.69.69,0,0,1-.25.56,1.06,1.06,0,0,1-.68.24,8.05,8.05,0,0,1-5.73-1.61,7.13,7.13,0,0,1-2.2-5.41l-.23-5.93-1.76.07a.52.52,0,0,1-.41-.13.56.56,0,0,1-.16-.4l-.12-3.1a.52.52,0,0,1,.13-.42.52.52,0,0,1,.4-.17l1.76-.07-.17-4.45a.68.68,0,0,1,.11-.43.59.59,0,0,1,.35-.26l3.9-1a1,1,0,0,1,.23,0c.29,0,.45.15.46.5l.21,5.47,2.93-.11a.51.51,0,0,1,.57.55l.12,3.1a.48.48,0,0,1-.53.57l-2.91.11.23,6A2.36,2.36,0,0,0,345,30.2a2.88,2.88,0,0,0,2,.49A1,1,0,0,1,347.61,30.87Z"/><path class="cls-4" d="M350.67,10.09a.64.64,0,0,1,.14-.46.62.62,0,0,1,.45-.18l4.32-.17a.67.67,0,0,1,.46.15.57.57,0,0,1,.17.45l.27,16.56a.75.75,0,0,1-.16.46.62.62,0,0,1-.44.18l-3.55.14a.64.64,0,0,1-.45-.15.72.72,0,0,1-.19-.45ZM352.87,35a3.2,3.2,0,0,1-1.14-1,3,3,0,0,1-.46-1.5,2.9,2.9,0,0,1,.35-1.51,3,3,0,0,1,2.55-1.58,2.92,2.92,0,0,1,1.51.34,3.05,3.05,0,0,1,1.13,1,2.93,2.93,0,0,1,.46,1.48,3,3,0,0,1-.35,1.53,3,3,0,0,1-1,1.13,2.79,2.79,0,0,1-1.48.47A2.92,2.92,0,0,1,352.87,35Z"/></g></g><path class="cls-5" d="M245.52,137.24s-3.4-3.58,6.63,2.23c7.17,4.15,31.6,43.86,41.89,61.3,15.35,26-14.61,39.78-39.78,53.72,0,0-5.68-2.31-6.32-3.43s1.95-3.85.12-4.56-1.18-2.12.05-3.77,25-20.43,26.38-25.81-29.18-41.14-32.26-46.29S235.28,148,245.52,137.24Z"/><path class="cls-5" d="M174.3,136.89s3.4-3.59-6.63,2.22c-7.17,4.16-31.6,43.87-41.88,61.3-15.35,26,14.61,39.78,39.78,53.72,0,0,5.67-2.31,6.31-3.42s-1.94-3.85-.12-4.57,1.19-2.12,0-3.76-25-20.44-26.37-25.82,29.17-41.14,32.25-46.29S184.55,147.61,174.3,136.89Z"/><path class="cls-5" d="M222.18,124.55c-14.65,2.32-10.52,2.28-25.28,0l-1.7.84-24.48,12,2.56,43.44c.16,2.44.32,4.8.48,7.06l.09,4.6s-1.7,36-1.29,37.59,3.64,5.24,3.64,5.24c-.12,1-.26,2-.41,3.1,5.85,2.46,16.72,5.61,33.74,5.46,17,.15,27.89-3,33.74-5.46-.15-1.09-.29-2.13-.42-3.1,0,0,3.25-3.7,3.65-5.24s-1.3-37.59-1.3-37.59l.1-4.6c.16-2.26.32-4.62.48-7.06l2.56-43.44L223.86,125.4Z"/><path class="cls-6" d="M209.13,126.27l.56.08.59-.08c2.44-.09,5.22-.66,11.9-1.72l1.68.85,3.4,1.65-1.09,1.18c-11.19,12.14-22.08,12.14-33.27,0l-1.09-1.18,3.39-1.65,1.7-.84C203.87,125.63,206.62,126.21,209.13,126.27Z"/><path class="cls-7" d="M219.76,97.06l-.3,7v16.57c0,1,1,2.58,2.72,3.9-9,9.78-16.27,9.78-25.29,0,1.74-1.32,2.72-2.85,2.72-3.9V104.08l-.3-7s5,.9,10.23,2.18C214.73,98,219.76,97.06,219.76,97.06Z"/><path class="cls-8" d="M219.46,107.91v12.74c0,1,1,2.58,2.72,3.9a36,36,0,0,1-4,3.81l-18.74-6.8a2.61,2.61,0,0,0,.2-.91V109C204.42,108.69,212.92,108.2,219.46,107.91Z"/><path class="cls-8" d="M184.12,86.48l-.53.09h0a7.23,7.23,0,1,0,6,1.45c.18,2.13-.15,4.76-2.87,5l.08-4.16a2.48,2.48,0,0,0-2.57-2.39Z"/><path class="cls-8" d="M236.14,86.48a4.71,4.71,0,0,1,.52.09h0a7.2,7.2,0,1,1-6,1.45c-.18,2.13.16,4.76,2.87,5l-.07-4.16A2.48,2.48,0,0,1,236,86.47Z"/><path class="cls-7" d="M210.13,50.48h0a24.76,24.76,0,0,0-24.68,24.68V97.6a24.75,24.75,0,0,0,24.68,24.67h0A24.74,24.74,0,0,0,234.8,97.6V75.16A24.74,24.74,0,0,0,210.13,50.48Z"/><path class="cls-9" d="M196.85,301.16s-2,10-12.92,10H148.4c-4.71,0-20.19-5.52-17.23-22.48S196.85,301.16,196.85,301.16Z"/><path class="cls-10" d="M307.76,265.49c1.34-1.88,10-17.13,10-17.13H294.57c-6.6,0-26.79,4.48-37.15,4.62S164,249.07,164,249.07s-38.34-7.4-43.68-8.06,4.38,26.1,6.26,28.25,87.22,29.07,94.49,26.65S307.76,265.49,307.76,265.49Z"/><path class="cls-10" d="M211.76,286.18s82.37-32.57,92.6-35.53,17.77-3.64,22.75,1.48,7.26,15.88,0,23.42-57.61,21.13-78.34,24.09-28.87,4.71-32,5.11-5-.13-5.86-2.82a68.07,68.07,0,0,1-2.15-12.59C208.86,287.53,211.76,286.18,211.76,286.18Z"/><path class="cls-9" d="M236.73,310.74s-.61,4.38,2.28,4.38H260.7c7.49,0,21-1.79,25.76-7.44s6.83-10,7.23-14-4.1-8.81-9.89-10-19.12,2.28-23,3.76-19.09,3.88-19.64,6.11S236.73,310.74,236.73,310.74Z"/><path class="cls-6" d="M278,183.28H141.86a3,3,0,0,0-3.14,2.85,2.86,2.86,0,0,0,.08.87l13.54,72.17a4.77,4.77,0,0,0,4.47,3.75H263a4.76,4.76,0,0,0,4.46-3.75L281,187a3,3,0,0,0-2.19-3.63A2.8,2.8,0,0,0,278,183.28Z"/><path class="cls-11" d="M230.33,290.82a42,42,0,0,0,12,2.83c6.46.47,4,7,3.84,10.09s-3.7,7.61-5.25,7.74-13.39-3.09-13.39-3.09Z"/><path class="cls-10" d="M231,289.21s-86.15-40.11-100.95-45.49-31.23-5.93-36.61,9.68,3,26.39,29.07,36.89,99.74,21,102.57,20.59,3.36-1.14,4.77-5.18a101.91,101.91,0,0,0,3.1-12.65C233.09,291.9,232.22,289.48,231,289.21Z"/><path class="cls-12" d="M246.83,175.84s-1.1-21.44,2.84-30"/><path class="cls-12" d="M246.72,165.83s-1.91-10.38-1.91-12.88"/><path class="cls-12" d="M172.81,175.84s1.09-21.44-2.85-30"/><path class="cls-12" d="M172.91,165.83s1.91-10.38,1.91-12.88"/><path class="cls-13" d="M252.33,183.28l-5.18-25.72-1.08,18.28c1.64,2.1,3.65,4.65,5.85,7.44Z"/><path class="cls-13" d="M282.37,237.92l-4.66-33.26L270,245.78A139.64,139.64,0,0,0,282.37,237.92Z"/><path class="cls-13" d="M149.75,245.38l-6.68-35.61-1.23,30.8Q145.64,243,149.75,245.38Z"/><path class="cls-14" d="M233,293.05c.13-1.15-.74-3.57-2-3.84,0,0-67.65-31.5-93.35-42.42"/><path class="cls-14" d="M218.69,283.45c20.06-7.91,77.26-30.37,85.67-32.8"/><path class="cls-10" d="M204.94,106.34a6,6,0,0,0,12,.15h0a1.06,1.06,0,0,0-1-1l-9.88-.12a1,1,0,0,0-1,1Z"/><path class="cls-15" d="M207.11,111a6,6,0,0,0,3.74,1.37,5.88,5.88,0,0,0,3.17-.86,4,4,0,0,0-6.91-.51Z"/><path class="cls-6" d="M216,105.45l-9.29-.11a2.1,2.1,0,0,0,1,2.3c.84.29,7.56.2,8-.33A3.41,3.41,0,0,0,216,105.45Z"/><path class="cls-8" d="M222.81,100.64a3,3,0,1,0,.07,0Z"/><path class="cls-8" d="M197.57,100.89a3,3,0,1,0,3.07,3A3.06,3.06,0,0,0,197.57,100.89Z"/><path class="cls-10" d="M195.89,86a.82.82,0,0,1-.77-1.45,7.69,7.69,0,0,1,7.22-.16.82.82,0,1,1-.81,1.43A6,6,0,0,0,195.89,86Z"/><path class="cls-10" d="M224.48,85.13a6,6,0,0,0-5.65.12.82.82,0,1,1-.88-1.39,7.67,7.67,0,0,1,7.22-.22.82.82,0,0,1,.4,1.09h0A.82.82,0,0,1,224.48,85.13Z"/><path class="cls-10" d="M222.13,91.07h0A2,2,0,0,1,224.18,93l.07,2.6a2,2,0,0,1-1.95,2h0a2,2,0,0,1-2.05-1.94l-.07-2.6A2,2,0,0,1,222.13,91.07Z"/><path class="cls-10" d="M198.56,91.77h0a2,2,0,0,0-1.94,2.06h0l.07,2.6a2,2,0,0,0,2.05,1.94h0a2,2,0,0,0,1.94-2.05l-.07-2.6a2,2,0,0,0-2.05-2Z"/><path class="cls-16" d="M210.34,98l1.19,3.35s.17,1-1.34,1S209.54,98,210.34,98Z"/><path class="cls-10" d="M200.26,69.4c-2.66,0-7.8,1.26-7.8,6.57s-1,9.52-4.39,9.52v4.16c0,2.33-.23,4.69-2.43,4.69,0-5-1.52-7-1.52-7V74.8c0-5.86,1.65-13.73,9.34-19.13a29.8,29.8,0,0,1,33.76,0c7.69,5.4,9.33,13.27,9.33,19.13V87.36s-1.52,2-1.52,7c-2.2,0-2.43-2.36-2.43-4.69V85.49c-3.38,0-4.39-4.21-4.39-9.52s-5.14-6.57-7.8-6.57Z"/><path class="cls-10" d="M192.43,71s-5.89-3.54-6.18-8c-.52-8.17,11.09-21.15,21.79-16,24-10.75,38.68,5.58,18.36,24l-.28.25a9.39,9.39,0,0,0-5.71-1.87H200.26a8.88,8.88,0,0,0-6.3,2.43C193,71.35,192.43,71,192.43,71Z"/><path class="cls-10" d="M187.6,65a.35.35,0,0,1-.06.48.29.29,0,0,1-.42,0l0,0s-4.19-5.61.8-13a.31.31,0,0,1,.44-.09h0a.36.36,0,0,1,.06.48C183.71,59.81,187.59,65,187.6,65Z"/><path class="cls-10" d="M192.77,51.83a.32.32,0,0,1-.45.08h0a.35.35,0,0,1-.06-.48s6.09-8.83,12.67-8.93c6.83-.11,5.18,7.37,5.17,7.39a.32.32,0,0,1-.37.26h0a.34.34,0,0,1-.24-.41s1.47-6.65-4.54-6.56C198.67,43.27,192.78,51.81,192.77,51.83Z"/><path class="cls-10" d="M218.51,44.86a.3.3,0,0,1-.4-.14.05.05,0,0,1,0,0,.35.35,0,0,1,.17-.45,18.92,18.92,0,0,1,12.29-.72,10,10,0,0,1,4.39,2.62A8.68,8.68,0,0,1,237.12,50a9.06,9.06,0,0,1,0,4.68,13.55,13.55,0,0,1-3.19,5.53.3.3,0,0,1-.44,0l0,0a.38.38,0,0,1,0-.49,12.85,12.85,0,0,0,3-5.24,8.51,8.51,0,0,0,0-4.31,8.12,8.12,0,0,0-2-3.51,9.41,9.41,0,0,0-4.11-2.45A18.39,18.39,0,0,0,218.51,44.86Z"/><path id="Path_40" data-name="Path 40" class="cls-17" d="M212.5,222.62h8.56a.82.82,0,0,1,1,.62.65.65,0,0,1,0,.24c0,1.06.19,4.28-2.07,6.68a9.9,9.9,0,0,1-3.88,2.86l-4.23-4.3V222.6Z"/><path id="Path_41" data-name="Path 41" class="cls-18" d="M212.46,214.26s.1-.72-.81-.72H199.88a.7.7,0,0,0-.85.48.65.65,0,0,0,0,.24v11.29a7.42,7.42,0,0,0,2.4,5.43,8.43,8.43,0,0,0,5.82,2.45h6.14s2.55,0,3.51-.82a8.51,8.51,0,0,1-.83-.55,9.06,9.06,0,0,1-1.72-1.61,8.35,8.35,0,0,1-1.78-4.29,29.87,29.87,0,0,1-.05-3.54Z"/><path id="Rectangle_45" data-name="Rectangle 45" class="cls-19" d="M201.18,216.18h9a.5.5,0,0,1,.5.5h0a.5.5,0,0,1-.5.5h-9a.5.5,0,0,1-.5-.5h0A.5.5,0,0,1,201.18,216.18Z"/><path id="Rectangle_46" data-name="Rectangle 46" class="cls-19" d="M201.18,218.06h9a.5.5,0,0,1,.5.5h0a.5.5,0,0,1-.5.5h-9a.5.5,0,0,1-.5-.5h0A.5.5,0,0,1,201.18,218.06Z"/><path id="Rectangle_49" data-name="Rectangle 49" class="cls-19" d="M201.18,219.94h2.25a.5.5,0,0,1,.5.5h0a.5.5,0,0,1-.5.5h-2.25a.5.5,0,0,1-.5-.5h0A.5.5,0,0,1,201.18,219.94Z"/><path id="Rectangle_48" data-name="Rectangle 48" class="cls-19" d="M205.06,219.94h5.14a.5.5,0,0,1,.5.5h0a.5.5,0,0,1-.5.5h-5.14a.5.5,0,0,1-.5-.5h0A.5.5,0,0,1,205.06,219.94Z"/><path id="Rectangle_50" data-name="Rectangle 50" class="cls-19" d="M206.82,221.82h3.38a.5.5,0,0,1,.5.5h0a.5.5,0,0,1-.5.5h-3.38a.5.5,0,0,1-.51-.49h0a.5.5,0,0,1,.5-.5Z"/><g class="cls-3"><g class="cls-3"><path class="cls-20" d="M67.52,337.81A.52.52,0,0,1,68,338l1.86,2.86a.44.44,0,0,1,.07.22.7.7,0,0,1-.1.33,1.17,1.17,0,0,1-.29.3,9.7,9.7,0,0,1-2.86,1.44,10,10,0,0,1-3.2.56,10.75,10.75,0,0,1-5.38-1.38,10.32,10.32,0,0,1-5.28-9.07,10.35,10.35,0,0,1,5.28-9.1,10.65,10.65,0,0,1,5.38-1.39,10.44,10.44,0,0,1,3.23.57,9.35,9.35,0,0,1,2.94,1.5.68.68,0,0,1,.3.56.64.64,0,0,1-.09.31L68,328.58a.52.52,0,0,1-.47.22.79.79,0,0,1-.51-.18,5.16,5.16,0,0,0-1.67-.95,5.72,5.72,0,0,0-1.85-.34,6.19,6.19,0,0,0-3.09.8,6,6,0,0,0-2.21,2.16,5.92,5.92,0,0,0,0,6,5.9,5.9,0,0,0,2.23,2.15,6.2,6.2,0,0,0,3.07.78,5.23,5.23,0,0,0,1.79-.34A5.84,5.84,0,0,0,67,338,1,1,0,0,1,67.52,337.81Z"/></g><g class="cls-3"><path class="cls-20" d="M83.82,331.17a.7.7,0,0,1-.12.36l-1.35,2.16a.51.51,0,0,1-.4.29.37.37,0,0,1-.27-.12,3.52,3.52,0,0,0-.94-.61,2.27,2.27,0,0,0-.93-.23,2.65,2.65,0,0,0-1.5.45,3.13,3.13,0,0,0-1.06,1.19,3.47,3.47,0,0,0-.39,1.63V343c0,.31-.16.46-.48.46H73.25a.46.46,0,0,1-.35-.12.45.45,0,0,1-.12-.34V330.31a.45.45,0,0,1,.13-.35.48.48,0,0,1,.35-.13h1.83a.6.6,0,0,1,.29.08.61.61,0,0,1,.22.23l.7,1.81a5.35,5.35,0,0,1,1.8-1.77,4.16,4.16,0,0,1,2.22-.68,4.67,4.67,0,0,1,1.74.36,5.58,5.58,0,0,1,1.6,1A.42.42,0,0,1,83.82,331.17Z"/></g><g class="cls-3"><path class="cls-20" d="M98.05,337.13a2.08,2.08,0,0,1-.67.82,1.59,1.59,0,0,1-.93.3H88.66a2.8,2.8,0,0,0,1.19,1.32,3.67,3.67,0,0,0,1.9.5,3.87,3.87,0,0,0,1.26-.24,4.75,4.75,0,0,0,1.21-.62.49.49,0,0,1,.3-.1.5.5,0,0,1,.43.24l1.52,2a.62.62,0,0,1,.11.33.5.5,0,0,1-.19.4,7.23,7.23,0,0,1-2.21,1.19,7.75,7.75,0,0,1-2.54.47,7.3,7.3,0,0,1-3.67-.95,7.1,7.1,0,0,1-2.64-2.58,7,7,0,0,1-1-3.59,7.08,7.08,0,0,1,1-3.61A7.25,7.25,0,0,1,95,330.36a6.39,6.39,0,0,1,3.34,5.69A2.44,2.44,0,0,1,98.05,337.13Zm-8.37-3.37a2.84,2.84,0,0,0-1,1.44h5.63a2.76,2.76,0,0,0-1.06-1.44,3,3,0,0,0-1.8-.55A2.85,2.85,0,0,0,89.68,333.76Z"/><path class="cls-20" d="M114.05,330a.48.48,0,0,1,.12.35V343a.48.48,0,0,1-.13.35.46.46,0,0,1-.35.13h-1.83a.57.57,0,0,1-.49-.3l-.6-1.54a5.21,5.21,0,0,1-1.9,1.6,5.29,5.29,0,0,1-2.45.56,6,6,0,0,1-3.28-.92,6.43,6.43,0,0,1-2.3-2.54,7.76,7.76,0,0,1-.84-3.62,8,8,0,0,1,.83-3.7,6.42,6.42,0,0,1,2.3-2.56,6,6,0,0,1,3.27-.93,5.3,5.3,0,0,1,4.37,2.19l.6-1.53a.54.54,0,0,1,.49-.31h1.83A.48.48,0,0,1,114.05,330Zm-5.32,9.37a3.12,3.12,0,0,0,1.16-1.12,3.06,3.06,0,0,0,.43-1.57,3.11,3.11,0,0,0-1.58-2.72,3,3,0,0,0-1.56-.42,2.93,2.93,0,0,0-1.52.42,3.06,3.06,0,0,0-1.13,1.13,3.1,3.1,0,0,0-.42,1.59,3.05,3.05,0,0,0,.42,1.57,3.11,3.11,0,0,0,1.13,1.12,2.93,2.93,0,0,0,1.52.42A3,3,0,0,0,108.73,339.33Z"/></g><g class="cls-3"><path class="cls-20" d="M124.82,340.08a.51.51,0,0,1,.2.43v2.63a.55.55,0,0,1-.21.44.81.81,0,0,1-.55.17,6.39,6.39,0,0,1-4.51-1.46,5.64,5.64,0,0,1-1.59-4.37v-4.73h-1.4a.44.44,0,0,1-.33-.11.47.47,0,0,1-.11-.33v-2.47a.49.49,0,0,1,.11-.33.45.45,0,0,1,.33-.12h1.4v-3.55a.62.62,0,0,1,.1-.34.48.48,0,0,1,.29-.19l3.14-.67.18,0c.23,0,.35.14.35.41v4.37h2.34a.41.41,0,0,1,.32.12.45.45,0,0,1,.12.33v2.47a.39.39,0,0,1-.44.44h-2.33V338a1.92,1.92,0,0,0,.52,1.5,2.33,2.33,0,0,0,1.55.45A.83.83,0,0,1,124.82,340.08Z"/></g><g class="cls-3"><path class="cls-20" d="M140.29,337.13a2.17,2.17,0,0,1-.67.82,1.59,1.59,0,0,1-.93.3H130.9a2.8,2.8,0,0,0,1.19,1.32,3.67,3.67,0,0,0,1.9.5,3.87,3.87,0,0,0,1.26-.24,4.75,4.75,0,0,0,1.21-.62.49.49,0,0,1,.3-.1.5.5,0,0,1,.43.24l1.52,2a.62.62,0,0,1,.11.33.5.5,0,0,1-.19.4,7.23,7.23,0,0,1-2.21,1.19,7.75,7.75,0,0,1-2.54.47,7.3,7.3,0,0,1-3.67-.95,7.1,7.1,0,0,1-2.64-2.58,7,7,0,0,1-1-3.59,7.08,7.08,0,0,1,1-3.61,7.25,7.25,0,0,1,9.65-2.68,6.39,6.39,0,0,1,3.34,5.69A2.44,2.44,0,0,1,140.29,337.13Zm-8.37-3.37a2.84,2.84,0,0,0-1,1.44h5.63a2.76,2.76,0,0,0-1.06-1.44,3,3,0,0,0-1.8-.55A2.85,2.85,0,0,0,131.92,333.76Z"/></g><g class="cls-3"><path class="cls-20" d="M168.33,323.25a.42.42,0,0,1,.14.33,1,1,0,0,1-.08.35l-6.64,11.63v7.19a.74.74,0,0,1-.17.5.65.65,0,0,1-.48.18h-3.19a.69.69,0,0,1-.51-.18.66.66,0,0,1-.19-.5v-7.19l-6.62-11.64a1.07,1.07,0,0,1-.08-.35.4.4,0,0,1,.15-.33.67.67,0,0,1,.41-.11h3.74a.76.76,0,0,1,.46.16,1.45,1.45,0,0,1,.37.44l3.84,7.18,3.86-7.19a1,1,0,0,1,.37-.44.85.85,0,0,1,.48-.15h3.73A.63.63,0,0,1,168.33,323.25Z"/></g><g class="cls-3"><path class="cls-20" d="M167.18,333a7.21,7.21,0,0,1,2.64-2.59,7.65,7.65,0,0,1,7.35,0,7.08,7.08,0,0,1,2.62,2.59,7.21,7.21,0,0,1,0,7.19,7.08,7.08,0,0,1-2.62,2.59,7.65,7.65,0,0,1-7.35,0,7.21,7.21,0,0,1-2.64-2.59,7.15,7.15,0,0,1,0-7.19Zm3.56,5.26a3.17,3.17,0,0,0,1.13,1.17,3.09,3.09,0,0,0,1.61.42,3.14,3.14,0,0,0,1.61-.42,3,3,0,0,0,1.13-1.17,3.59,3.59,0,0,0,0-3.33,3,3,0,0,0-1.13-1.17,3.14,3.14,0,0,0-1.61-.42,3.09,3.09,0,0,0-1.61.42,3.17,3.17,0,0,0-1.13,1.17,3.59,3.59,0,0,0,0,3.33Z"/><path class="cls-20" d="M196.65,330.3V343a.48.48,0,0,1-.13.35.42.42,0,0,1-.34.13h-1.82a.56.56,0,0,1-.51-.3l-.76-2a5.06,5.06,0,0,1-1.93,1.88,5.26,5.26,0,0,1-2.64.73,5.48,5.48,0,0,1-2.82-.73,5.07,5.07,0,0,1-1.91-2.08,6.86,6.86,0,0,1-.69-3.17V330.3a.45.45,0,0,1,.13-.35.47.47,0,0,1,.34-.12h3.14a.45.45,0,0,1,.34.12.48.48,0,0,1,.12.35v7.23a2.48,2.48,0,0,0,.71,1.83,2.59,2.59,0,0,0,1.91.71,2.91,2.91,0,0,0,1.4-.35,2.75,2.75,0,0,0,1-1,2.29,2.29,0,0,0,.37-1.26V330.3a.42.42,0,0,1,.47-.47h3.15C196.5,329.83,196.65,330,196.65,330.3Z"/><path class="cls-20" d="M211,331.17a.7.7,0,0,1-.12.36l-1.35,2.16c-.12.19-.25.29-.4.29a.37.37,0,0,1-.26-.12,3.87,3.87,0,0,0-.94-.61A2.34,2.34,0,0,0,207,333a2.62,2.62,0,0,0-1.5.45,3.16,3.16,0,0,0-1.07,1.19,3.59,3.59,0,0,0-.38,1.63V343c0,.31-.16.46-.48.46h-3.14a.48.48,0,0,1-.35-.12.45.45,0,0,1-.12-.34V330.31a.45.45,0,0,1,.14-.35.44.44,0,0,1,.34-.13h1.83a.61.61,0,0,1,.3.08.59.59,0,0,1,.21.23l.71,1.81a5.32,5.32,0,0,1,1.79-1.77,4.19,4.19,0,0,1,2.22-.68,4.68,4.68,0,0,1,1.75.36,5.53,5.53,0,0,1,1.59,1A.42.42,0,0,1,211,331.17Z"/><path class="cls-20" d="M237.24,323.32a.68.68,0,0,1,.18.5v2.94a.63.63,0,0,1-.69.69h-9.57v5.7h7.56a.84.84,0,0,1,.59.2.73.73,0,0,1,.2.54v2.49a.71.71,0,0,1-.2.53.89.89,0,0,1-.59.18h-7.56v5.66a.66.66,0,0,1-.18.49.69.69,0,0,1-.51.18h-3.19a.68.68,0,0,1-.5-.18.66.66,0,0,1-.18-.49V323.81a.64.64,0,0,1,.18-.49.65.65,0,0,1,.5-.18h13.45A.69.69,0,0,1,237.24,323.32Z"/><path class="cls-20" d="M240.85,327.91a2.41,2.41,0,0,1-.84-.84,2.28,2.28,0,0,1-.31-1.15,2.34,2.34,0,0,1,.31-1.16,2.41,2.41,0,0,1,.84-.84,2.24,2.24,0,0,1,1.16-.31,2.22,2.22,0,0,1,1.16.31,2.33,2.33,0,0,1,.83.85,2.23,2.23,0,0,1,.31,1.15,2.18,2.18,0,0,1-.31,1.15,2.24,2.24,0,0,1-2,1.14A2.33,2.33,0,0,1,240.85,327.91Zm3.09,2a.45.45,0,0,1,.12.33V343a.45.45,0,0,1-.12.33.47.47,0,0,1-.34.12h-3.18a.41.41,0,0,1-.32-.12A.45.45,0,0,1,240,343v-12.7a.45.45,0,0,1,.12-.33.41.41,0,0,1,.32-.12h3.18A.47.47,0,0,1,243.94,330Z"/></g><g class="cls-3"><path class="cls-20" d="M258.34,331.17a.7.7,0,0,1-.12.36l-1.35,2.16a.51.51,0,0,1-.4.29.37.37,0,0,1-.27-.12,3.52,3.52,0,0,0-.94-.61,2.27,2.27,0,0,0-.93-.23,2.65,2.65,0,0,0-1.5.45,3.13,3.13,0,0,0-1.06,1.19,3.47,3.47,0,0,0-.39,1.63V343c0,.31-.16.46-.48.46h-3.13a.46.46,0,0,1-.35-.12.45.45,0,0,1-.12-.34V330.31a.45.45,0,0,1,.13-.35.48.48,0,0,1,.35-.13h1.83a.6.6,0,0,1,.29.08.61.61,0,0,1,.22.23l.7,1.81a5.44,5.44,0,0,1,1.8-1.77,4.16,4.16,0,0,1,2.22-.68,4.67,4.67,0,0,1,1.74.36,5.58,5.58,0,0,1,1.6,1A.42.42,0,0,1,258.34,331.17Z"/></g><g class="cls-3"><path class="cls-20" d="M263.72,333.47a.57.57,0,0,0-.28.51.59.59,0,0,0,.13.37,1.24,1.24,0,0,0,.51.31,8.06,8.06,0,0,0,1.13.36,13.66,13.66,0,0,1,2.69,1,4.23,4.23,0,0,1,1.61,1.42,3.91,3.91,0,0,1,.57,2.18,3.68,3.68,0,0,1-.69,2.26,4.18,4.18,0,0,1-1.94,1.4,8.29,8.29,0,0,1-2.9.46,8.4,8.4,0,0,1-3-.54,6.7,6.7,0,0,1-2.44-1.59.68.68,0,0,1-.23-.47.75.75,0,0,1,.24-.49l1.75-1.81a.58.58,0,0,1,.41-.17,1.08,1.08,0,0,1,.58.23,5.41,5.41,0,0,0,1.33.77,3.9,3.9,0,0,0,1.39.27,3.54,3.54,0,0,0,1.05-.13.51.51,0,0,0,.37-.5.72.72,0,0,0-.44-.63,6.37,6.37,0,0,0-1.41-.52,14.31,14.31,0,0,1-2.56-.94,3.85,3.85,0,0,1-1.54-1.39,4.17,4.17,0,0,1-.56-2.27,3.79,3.79,0,0,1,.58-2,4.11,4.11,0,0,1,1.7-1.5,6,6,0,0,1,2.7-.56,6.89,6.89,0,0,1,2.75.55,6.7,6.7,0,0,1,2.25,1.58.87.87,0,0,1,.28.52.73.73,0,0,1-.3.51l-1.53,1.47a.7.7,0,0,1-.5.19.92.92,0,0,1-.54-.18,3.58,3.58,0,0,0-1.08-.64,3.88,3.88,0,0,0-1.29-.2A1.45,1.45,0,0,0,263.72,333.47Z"/><path class="cls-20" d="M279.86,340.08a.51.51,0,0,1,.2.43v2.63a.55.55,0,0,1-.21.44.82.82,0,0,1-.55.17,6.39,6.39,0,0,1-4.51-1.46,5.64,5.64,0,0,1-1.59-4.37v-4.73h-1.4a.44.44,0,0,1-.33-.11.47.47,0,0,1-.11-.33v-2.47a.49.49,0,0,1,.11-.33.45.45,0,0,1,.33-.12h1.4v-3.55a.62.62,0,0,1,.1-.34.46.46,0,0,1,.29-.19l3.14-.67.18,0c.23,0,.35.14.35.41v4.37h2.34a.41.41,0,0,1,.32.12.45.45,0,0,1,.12.33v2.47a.39.39,0,0,1-.44.44h-2.33V338a1.92,1.92,0,0,0,.52,1.5,2.33,2.33,0,0,0,1.55.45A.83.83,0,0,1,279.86,340.08Z"/><path class="cls-20" d="M297,342.93a.49.49,0,0,1-.13.37.52.52,0,0,1-.38.13H293a.52.52,0,0,1-.38-.13.54.54,0,0,1-.13-.37V323.62a.54.54,0,0,1,.13-.37.56.56,0,0,1,.38-.12h3.52a.56.56,0,0,1,.38.12.49.49,0,0,1,.13.37Z"/><path class="cls-20" d="M311.78,330.21a4.94,4.94,0,0,1,1.91,2.08,7.1,7.1,0,0,1,.68,3.19V343a.41.41,0,0,1-.47.47h-3.13a.42.42,0,0,1-.47-.47v-7.23a2.48,2.48,0,0,0-.71-1.83,2.59,2.59,0,0,0-1.91-.71,2.8,2.8,0,0,0-2.4,1.3,2.35,2.35,0,0,0-.37,1.28V343c0,.31-.16.46-.48.46h-3.14a.48.48,0,0,1-.35-.12.45.45,0,0,1-.12-.34V330.31A.45.45,0,0,1,301,330a.44.44,0,0,1,.34-.13h1.83a.55.55,0,0,1,.29.08.61.61,0,0,1,.22.23l.76,1.95a5,5,0,0,1,1.92-1.88,5.25,5.25,0,0,1,2.63-.73A5.49,5.49,0,0,1,311.78,330.21Z"/></g><g class="cls-3"><path class="cls-20" d="M329.8,329.94a.35.35,0,0,1,.12.28.79.79,0,0,1-.06.25l-6.28,12.82a1.16,1.16,0,0,1-.28.35.69.69,0,0,1-.42.11h-.09a.64.64,0,0,1-.41-.11,1,1,0,0,1-.29-.35l-6.29-12.82a.53.53,0,0,1-.05-.25.35.35,0,0,1,.12-.28.41.41,0,0,1,.28-.11h3.55a.58.58,0,0,1,.38.13.66.66,0,0,1,.25.32l2.5,5.9,2.5-5.9a.72.72,0,0,1,.25-.32.63.63,0,0,1,.39-.13h3.55A.41.41,0,0,1,329.8,329.94Z"/></g><g class="cls-3"><path class="cls-20" d="M331.19,333a7.21,7.21,0,0,1,2.64-2.59,7.65,7.65,0,0,1,7.35,0A7.08,7.08,0,0,1,343.8,333a7.21,7.21,0,0,1,0,7.19,7.08,7.08,0,0,1-2.62,2.59,7.65,7.65,0,0,1-7.35,0,7.21,7.21,0,0,1-2.64-2.59,7.15,7.15,0,0,1,0-7.19Zm3.56,5.26a3.17,3.17,0,0,0,1.13,1.17,3.09,3.09,0,0,0,1.61.42,3.14,3.14,0,0,0,1.61-.42,3,3,0,0,0,1.13-1.17,3.59,3.59,0,0,0,0-3.33,3,3,0,0,0-1.13-1.17,3.14,3.14,0,0,0-1.61-.42,3.09,3.09,0,0,0-1.61.42,3.17,3.17,0,0,0-1.13,1.17,3.59,3.59,0,0,0,0,3.33Z"/><path class="cls-20" d="M348.11,327.91a2.41,2.41,0,0,1-.84-.84,2.28,2.28,0,0,1-.31-1.15,2.34,2.34,0,0,1,.31-1.16,2.41,2.41,0,0,1,.84-.84,2.27,2.27,0,0,1,1.16-.31,2.22,2.22,0,0,1,1.16.31,2.33,2.33,0,0,1,.83.85,2.23,2.23,0,0,1,.31,1.15,2.18,2.18,0,0,1-.31,1.15,2.24,2.24,0,0,1-2,1.14A2.36,2.36,0,0,1,348.11,327.91Zm3.09,2a.45.45,0,0,1,.12.33V343a.45.45,0,0,1-.12.33.47.47,0,0,1-.34.12h-3.17a.42.42,0,0,1-.33-.12.44.44,0,0,1-.11-.33v-12.7a.44.44,0,0,1,.11-.33.42.42,0,0,1,.33-.12h3.17A.47.47,0,0,1,351.2,330Z"/><path class="cls-20" d="M357.42,342.79a7.29,7.29,0,0,1-2.65-2.61,6.78,6.78,0,0,1-1-3.54,6.9,6.9,0,0,1,1-3.58,7.23,7.23,0,0,1,2.64-2.6,7.14,7.14,0,0,1,3.63-1,7.4,7.4,0,0,1,2.56.47,6.35,6.35,0,0,1,2.11,1.2.53.53,0,0,1,.17.38.49.49,0,0,1-.09.28l-1.58,2.43a.47.47,0,0,1-.4.23.5.5,0,0,1-.29-.11,3.78,3.78,0,0,0-2.43-.89,3.06,3.06,0,0,0-1.55.4,3.06,3.06,0,0,0-1.52,2.72,3.19,3.19,0,0,0,.41,1.59,3,3,0,0,0,1.12,1.13,3,3,0,0,0,1.57.42,3.6,3.6,0,0,0,2.37-.86.54.54,0,0,1,.28-.08.45.45,0,0,1,.4.22l1.62,2.32a.44.44,0,0,1,.09.29.53.53,0,0,1-.2.42,7.31,7.31,0,0,1-2.2,1.21,7.07,7.07,0,0,1-2.43.48A7.14,7.14,0,0,1,357.42,342.79Z"/><path class="cls-20" d="M381.17,337.13a2.17,2.17,0,0,1-.67.82,1.62,1.62,0,0,1-.94.3h-7.78a2.8,2.8,0,0,0,1.19,1.32,3.67,3.67,0,0,0,1.9.5,3.87,3.87,0,0,0,1.26-.24,4.68,4.68,0,0,0,1.2-.62.54.54,0,0,1,.31-.1.5.5,0,0,1,.43.24l1.52,2a.62.62,0,0,1,.11.33.5.5,0,0,1-.19.4,7.29,7.29,0,0,1-2.22,1.19,7.65,7.65,0,0,1-2.53.47,7.3,7.3,0,0,1-3.67-.95,7.11,7.11,0,0,1,3.54-13.32,7,7,0,0,1,3.45.86,6.39,6.39,0,0,1,3.34,5.69A2.44,2.44,0,0,1,381.17,337.13Zm-8.37-3.37a2.92,2.92,0,0,0-1.05,1.44h5.64a2.76,2.76,0,0,0-1.06-1.44,3,3,0,0,0-1.8-.55A2.85,2.85,0,0,0,372.8,333.76Z"/></g></g></g><g id="Layer_4" data-name="Layer 4"><path class="cls-20" d="M411.7,334.25l-5.6-5.6a2.12,2.12,0,0,0-3,3l4.11,4.12-4.11,4.12a2.11,2.11,0,0,0,1.48,3.59,2.08,2.08,0,0,0,1.49-.62l5.6-5.6a2.11,2.11,0,0,0,.06-3Z"/><path class="cls-20" d="M401.89,334.25l-5.6-5.6a2.12,2.12,0,0,0-3,3l4.11,4.12-4.11,4.12a2.11,2.11,0,0,0,1.48,3.59,2.08,2.08,0,0,0,1.49-.62l5.6-5.6a2.11,2.11,0,0,0,.06-3Z"/></g></g></g></svg>