<svg xmlns="http://www.w3.org/2000/svg" viewBox="0 0 429.08 363.03"><defs><style>.cls-1{fill:#e0e7ff;}.cls-2{fill:#fbf2ea;}.cls-3{font-size:34.32px;}.cls-3,.cls-6{fill:#6772e5;}.cls-21,.cls-3{font-family:CocomatProTrial-ExtraBold, Cocomat Pro Trial;font-weight:800;}.cls-4{letter-spacing:-0.1em;}.cls-5{letter-spacing:-0.02em;}.cls-10,.cls-11,.cls-12,.cls-13,.cls-14,.cls-15,.cls-16,.cls-17,.cls-6,.cls-7,.cls-8,.cls-9{fill-rule:evenodd;}.cls-20,.cls-7{fill:#fff;}.cls-8{fill:#e1b3bf;}.cls-9{fill:#d68096;}.cls-10{fill:#ca4c5a;}.cls-11{fill:#2e2450;}.cls-12{fill:#d78f74;}.cls-13,.cls-14{fill:#4772d1;}.cls-13{stroke:#4772d1;}.cls-13,.cls-15{stroke-linecap:round;stroke-linejoin:round;stroke-width:0.57px;}.cls-15{fill:none;stroke:#6e5c9f;}.cls-16{fill:#bb4f58;}.cls-17{fill:#f2dce2;}.cls-18{fill:#79d2f4;}.cls-19{fill:#1b165b;}.cls-21{font-size:27.34px;}.cls-21,.cls-26{fill:#fda734;}.cls-22{letter-spacing:-0.02em;}.cls-23{letter-spacing:0.02em;}.cls-24{letter-spacing:-0.03em;}.cls-25{letter-spacing:-0.02em;}</style></defs><title>Welcome</title><g id="Layer_2" data-name="Layer 2"><g id="Layer_3" data-name="Layer 3"><polygon class="cls-1" points="2.26 12.87 0 60.26 417.59 46.84 413.46 0 2.26 12.87"/><polygon class="cls-2" points="16.45 304.87 11.42 352.05 429.08 363.03 427.7 316.03 16.45 304.87"/><text class="cls-3" transform="translate(77.17 45.43) rotate(-2.2)"><tspan class="cls-4">W</tspan><tspan x="35.06" y="0">elcome </tspan><tspan class="cls-5" x="163.9" y="0">t</tspan><tspan x="176.4" y="0">o Billy</tspan></text><path class="cls-6" d="M245.52,137.24s-3.4-3.58,6.63,2.23c7.17,4.15,31.6,43.86,41.89,61.3,15.35,26-14.61,39.78-39.78,53.72,0,0-5.68-2.31-6.32-3.43s1.95-3.85.12-4.56-1.18-2.12.05-3.77,25-20.43,26.38-25.81-29.18-41.14-32.26-46.29S235.28,148,245.52,137.24Z"/><path class="cls-6" d="M174.3,136.89s3.4-3.59-6.63,2.22c-7.17,4.16-31.6,43.87-41.88,61.3-15.35,26,14.61,39.78,39.78,53.72,0,0,5.67-2.31,6.31-3.42s-1.94-3.85-.12-4.57,1.19-2.12,0-3.76-25-20.44-26.37-25.82,29.17-41.14,32.25-46.29S184.55,147.61,174.3,136.89Z"/><path class="cls-6" d="M222.18,124.55c-14.65,2.32-10.52,2.28-25.28,0l-1.7.84-24.48,11.95,2.56,43.44c.16,2.44.32,4.8.48,7.06l.09,4.6s-1.7,36-1.29,37.59,3.64,5.24,3.64,5.24c-.12,1-.26,2-.41,3.1,5.85,2.46,16.72,5.61,33.74,5.46,17,.15,27.89-3,33.74-5.46-.15-1.09-.29-2.13-.42-3.1,0,0,3.25-3.7,3.65-5.24s-1.3-37.59-1.3-37.59l.1-4.6c.16-2.26.32-4.62.48-7.06l2.56-43.44L223.86,125.4Z"/><path class="cls-7" d="M209.13,126.27l.56.08.59-.08c2.44-.09,5.22-.66,11.9-1.72l1.68.85,3.4,1.65-1.09,1.18c-11.19,12.14-22.08,12.14-33.27,0l-1.09-1.18,3.39-1.65,1.7-.84C203.87,125.63,206.62,126.21,209.13,126.27Z"/><path class="cls-8" d="M219.76,97.06l-.3,7v16.57c0,1,1,2.58,2.72,3.9-9,9.78-16.27,9.78-25.29,0,1.74-1.32,2.72-2.85,2.72-3.9V104.08l-.3-7s5,.9,10.23,2.18C214.73,98,219.76,97.06,219.76,97.06Z"/><path class="cls-9" d="M219.46,107.91v12.74c0,1,1,2.58,2.72,3.9a35.79,35.79,0,0,1-4,3.81l-18.74-6.8a2.55,2.55,0,0,0,.2-.91V109C204.42,108.69,212.92,108.2,219.46,107.91Z"/><path class="cls-9" d="M184.12,86.48l-.53.09h0a7.22,7.22,0,1,0,6,1.45c.18,2.13-.15,4.76-2.87,5l.08-4.16A2.48,2.48,0,0,0,184.12,86.48Z"/><path class="cls-9" d="M236.14,86.48a4.71,4.71,0,0,1,.52.09h0a7.2,7.2,0,1,1-6,1.45c-.18,2.13.16,4.76,2.87,5l-.07-4.16A2.47,2.47,0,0,1,236.14,86.48Z"/><path class="cls-8" d="M210.13,50.48h0a24.75,24.75,0,0,0-24.68,24.68V97.6a24.75,24.75,0,0,0,24.68,24.67h0A24.74,24.74,0,0,0,234.8,97.6V75.16A24.74,24.74,0,0,0,210.13,50.48Z"/><path class="cls-10" d="M196.85,301.16s-2,10-12.92,10H148.4c-4.71,0-20.19-5.52-17.23-22.48S196.85,301.16,196.85,301.16Z"/><path class="cls-11" d="M307.76,265.49c1.34-1.88,10-17.13,10-17.13H294.57c-6.6,0-26.79,4.48-37.15,4.62S164,249.07,164,249.07s-38.34-7.4-43.68-8.06,4.38,26.1,6.26,28.25,87.22,29.07,94.49,26.65S307.76,265.49,307.76,265.49Z"/><path class="cls-11" d="M211.76,286.18s82.37-32.57,92.6-35.53,17.77-3.64,22.75,1.48,7.26,15.88,0,23.42-57.61,21.13-78.34,24.09-28.87,4.71-32,5.11-5-.13-5.86-2.82a68.74,68.74,0,0,1-2.15-12.59C208.86,287.53,211.76,286.18,211.76,286.18Z"/><path class="cls-10" d="M236.73,310.74s-.61,4.38,2.28,4.38H260.7c7.49,0,21-1.79,25.76-7.44s6.83-10,7.23-14-4.1-8.81-9.89-10-19.12,2.28-23,3.76-19.09,3.88-19.64,6.11S236.73,310.74,236.73,310.74Z"/><path class="cls-7" d="M278,183.28H141.86A3,3,0,0,0,138.8,187l13.54,72.17a4.77,4.77,0,0,0,4.47,3.75H263a4.77,4.77,0,0,0,4.46-3.75L281,187A3,3,0,0,0,278,183.28Z"/><path class="cls-12" d="M230.33,290.82a42,42,0,0,0,12,2.83c6.46.47,4,7,3.84,10.09s-3.7,7.61-5.25,7.74-13.39-3.09-13.39-3.09Z"/><path class="cls-11" d="M231,289.21s-86.15-40.11-100.95-45.49-31.23-5.93-36.61,9.68,3,26.39,29.07,36.89,99.74,21,102.57,20.59,3.36-1.14,4.77-5.18a100.84,100.84,0,0,0,3.1-12.65C233.09,291.9,232.22,289.48,231,289.21Z"/><path class="cls-13" d="M246.83,175.84s-1.1-21.44,2.84-30"/><path class="cls-13" d="M246.72,165.83s-1.91-10.38-1.91-12.88"/><path class="cls-13" d="M172.81,175.84s1.09-21.44-2.85-30"/><path class="cls-13" d="M172.91,165.83s1.91-10.38,1.91-12.88"/><path class="cls-14" d="M252.33,183.28l-5.18-25.72-1.08,18.28c1.64,2.1,3.65,4.65,5.85,7.44Z"/><path class="cls-14" d="M282.37,237.92l-4.66-33.26L270,245.78A139.65,139.65,0,0,0,282.37,237.92Z"/><path class="cls-14" d="M149.75,245.38l-6.68-35.61-1.23,30.8C144.37,242.21,147,243.81,149.75,245.38Z"/><path class="cls-15" d="M233,293.05c.13-1.15-.74-3.57-2-3.84,0,0-67.65-31.5-93.35-42.42"/><path class="cls-15" d="M218.69,283.45c20.06-7.91,77.26-30.37,85.67-32.8"/><path class="cls-11" d="M204.94,106.34a6,6,0,1,0,12,.15h0a1.05,1.05,0,0,0-1-1l-9.88-.12a1,1,0,0,0-1,1Z"/><path class="cls-16" d="M207.11,111a6,6,0,0,0,3.74,1.37,5.89,5.89,0,0,0,3.17-.86,3.7,3.7,0,0,0-3.39-2.25A3.75,3.75,0,0,0,207.11,111Z"/><path class="cls-7" d="M216,105.45l-9.29-.11a2.09,2.09,0,0,0,1,2.3c.84.29,7.56.2,8-.33A3.47,3.47,0,0,0,216,105.45Z"/><path class="cls-9" d="M222.81,100.64a3,3,0,1,0,3.07,3A3,3,0,0,0,222.81,100.64Z"/><path class="cls-9" d="M197.57,100.89a3,3,0,1,0,3.07,3A3.05,3.05,0,0,0,197.57,100.89Z"/><path class="cls-11" d="M195.89,86a.82.82,0,0,1-.77-1.45,7.67,7.67,0,0,1,7.22-.16.82.82,0,0,1-.81,1.43A6,6,0,0,0,195.89,86Z"/><path class="cls-11" d="M224.48,85.13a6,6,0,0,0-5.65.12.82.82,0,0,1-.88-1.39,7.66,7.66,0,0,1,7.22-.22.82.82,0,0,1,.4,1.09A.83.83,0,0,1,224.48,85.13Z"/><path class="cls-11" d="M222.13,91.07h0A2,2,0,0,1,224.18,93l.07,2.6a2,2,0,0,1-1.95,2h0a2,2,0,0,1-2.05-1.94l-.07-2.6A2,2,0,0,1,222.13,91.07Z"/><path class="cls-11" d="M198.56,91.77h0a2,2,0,0,0-1.94,2.06l.07,2.6a2,2,0,0,0,2.05,1.94h0a2,2,0,0,0,1.94-2.05l-.07-2.6A2,2,0,0,0,198.56,91.77Z"/><path class="cls-17" d="M210.34,98l1.19,3.35s.17,1-1.34,1S209.54,98,210.34,98Z"/><path class="cls-11" d="M200.26,69.4c-2.66,0-7.8,1.26-7.8,6.57s-1,9.52-4.39,9.52v4.16c0,2.33-.23,4.69-2.43,4.69,0-5-1.52-7-1.52-7V74.8c0-5.86,1.65-13.73,9.34-19.13a29.8,29.8,0,0,1,33.76,0c7.69,5.4,9.33,13.27,9.33,19.13V87.36s-1.52,2-1.52,7c-2.2,0-2.43-2.36-2.43-4.69V85.49c-3.38,0-4.39-4.21-4.39-9.52s-5.14-6.57-7.8-6.57Z"/><path class="cls-11" d="M192.43,71s-5.89-3.54-6.18-8c-.52-8.17,11.09-21.15,21.79-16,24-10.75,38.68,5.58,18.36,24l-.28.25a9.41,9.41,0,0,0-5.71-1.87H200.26a8.9,8.9,0,0,0-6.3,2.43C193,71.35,192.43,71,192.43,71Z"/><path class="cls-11" d="M187.6,65a.35.35,0,0,1-.06.48.3.3,0,0,1-.45-.06s-4.19-5.61.8-12.95a.32.32,0,0,1,.46-.08.36.36,0,0,1,.06.48C183.71,59.81,187.59,65,187.6,65Z"/><path class="cls-11" d="M192.77,51.83a.32.32,0,0,1-.46.07.35.35,0,0,1-.06-.48s6.09-8.83,12.67-8.93c6.83-.11,5.18,7.37,5.17,7.39a.32.32,0,0,1-.39.26.34.34,0,0,1-.24-.41s1.47-6.65-4.54-6.56C198.67,43.27,192.78,51.81,192.77,51.83Z"/><path class="cls-11" d="M218.51,44.86a.3.3,0,0,1-.42-.18.35.35,0,0,1,.17-.45,18.92,18.92,0,0,1,12.29-.72,10.09,10.09,0,0,1,4.39,2.62A8.61,8.61,0,0,1,237.12,50a9.07,9.07,0,0,1,0,4.68,13.51,13.51,0,0,1-3.19,5.53.31.31,0,0,1-.46,0,.37.37,0,0,1,0-.49,12.79,12.79,0,0,0,3-5.24,8.41,8.41,0,0,0,0-4.31,8.09,8.09,0,0,0-2-3.51,9.46,9.46,0,0,0-4.11-2.45A18.4,18.4,0,0,0,218.51,44.86Z"/><path id="Path_40" data-name="Path 40" class="cls-18" d="M212.5,222.62h8.56a.82.82,0,0,1,1,.86c0,1.06.19,4.28-2.07,6.68a10,10,0,0,1-3.88,2.86l-4.23-4.3V222.6Z"/><path id="Path_41" data-name="Path 41" class="cls-19" d="M212.46,214.26s.1-.72-.81-.72H199.88a.69.69,0,0,0-.87.72c0,.92,0,11.29,0,11.29a7.42,7.42,0,0,0,2.4,5.43,8.46,8.46,0,0,0,5.82,2.45c1.62,0,3.25,0,4.88,0h1.26s2.55,0,3.51-.82c-.06,0-.78-.51-.83-.55a9.39,9.39,0,0,1-1.72-1.61,8.35,8.35,0,0,1-1.78-4.29,29.87,29.87,0,0,1-.05-3.54Z"/><path id="Rectangle_45" data-name="Rectangle 45" class="cls-20" d="M201.18,216.18h9a.5.5,0,0,1,.5.5h0a.5.5,0,0,1-.5.5h-9a.5.5,0,0,1-.5-.5h0A.5.5,0,0,1,201.18,216.18Z"/><path id="Rectangle_46" data-name="Rectangle 46" class="cls-20" d="M201.18,218.06h9a.5.5,0,0,1,.5.5h0a.5.5,0,0,1-.5.5h-9a.5.5,0,0,1-.5-.5h0A.5.5,0,0,1,201.18,218.06Z"/><path id="Rectangle_49" data-name="Rectangle 49" class="cls-20" d="M201.18,219.94h2.25a.5.5,0,0,1,.5.5h0a.5.5,0,0,1-.5.5h-2.25a.5.5,0,0,1-.5-.5h0A.5.5,0,0,1,201.18,219.94Z"/><path id="Rectangle_48" data-name="Rectangle 48" class="cls-20" d="M205.06,219.94h5.14a.5.5,0,0,1,.5.5h0a.5.5,0,0,1-.5.5h-5.14a.5.5,0,0,1-.5-.5h0A.5.5,0,0,1,205.06,219.94Z"/><path id="Rectangle_50" data-name="Rectangle 50" class="cls-20" d="M206.82,221.82h3.38a.5.5,0,0,1,.5.5h0a.5.5,0,0,1-.5.5h-3.38a.5.5,0,0,1-.51-.5h0A.5.5,0,0,1,206.82,221.82Z"/><text class="cls-21" transform="translate(47.5 343.42)">S<tspan class="cls-22" x="17.93" y="0">t</tspan><tspan x="27.88" y="0">a</tspan><tspan class="cls-23" x="44.54" y="0">r</tspan><tspan x="58.19" y="0">t Gene</tspan><tspan class="cls-24" x="145.93" y="0">r</tspan><tspan x="158.29" y="0">ating In</tspan><tspan class="cls-25" x="260.65" y="0">v</tspan><tspan x="274.14" y="0">oices</tspan></text></g><g id="Layer_4" data-name="Layer 4"><path class="cls-26" d="M411.7,334.25l-5.6-5.6a2.1,2.1,0,0,0-3,3l4.11,4.12-4.11,4.12a2.11,2.11,0,0,0,1.48,3.59,2.11,2.11,0,0,0,1.49-.62l5.6-5.6A2.11,2.11,0,0,0,411.7,334.25Z"/><path class="cls-26" d="M401.89,334.25l-5.6-5.6a2.1,2.1,0,0,0-3,3l4.11,4.12-4.11,4.12a2.11,2.11,0,0,0,1.48,3.59,2.11,2.11,0,0,0,1.49-.62l5.6-5.6A2.11,2.11,0,0,0,401.89,334.25Z"/></g></g></svg>